<?xml version="1.0" encoding="UTF-8" standalone="no"?>
<svg
   viewBox="0 0 24 24"
   width="24"
   height="24"
   version="1.1"
   id="svg6"
   sodipodi:docname="scissors-line.svg"
   inkscape:version="1.2 (dc2aedaf03, 2022-05-15)"
   xmlns:inkscape="http://www.inkscape.org/namespaces/inkscape"
   xmlns:sodipodi="http://sodipodi.sourceforge.net/DTD/sodipodi-0.dtd"
   xmlns="http://www.w3.org/2000/svg"
   xmlns:svg="http://www.w3.org/2000/svg">
  <defs
     id="defs10" />
  <sodipodi:namedview
     id="namedview8"
     pagecolor="#ffffff"
     bordercolor="#000000"
     borderopacity="0.25"
     inkscape:showpageshadow="2"
     inkscape:pageopacity="0.0"
     inkscape:pagecheckerboard="0"
     inkscape:deskcolor="#d1d1d1"
     showgrid="false"
     inkscape:zoom="34.875"
     inkscape:cx="12"
     inkscape:cy="12.014337"
     inkscape:window-width="1920"
     inkscape:window-height="1017"
     inkscape:window-x="-8"
     inkscape:window-y="-8"
     inkscape:window-maximized="1"
     inkscape:current-layer="svg6" />
  <path
     fill="none"
     d="M0 0h24v24H0z"
     id="path2" />
  <path
     d="M9.446 8.032L12 10.586l6.728-6.728a2 2 0 0 1 2.828 0l-12.11 12.11a4 4 0 1 1-1.414-1.414L10.586 12 8.032 9.446a4 4 0 1 1 1.414-1.414zm5.38 5.38l6.73 6.73a2 2 0 0 1-2.828 0l-5.317-5.316 1.415-1.415zm-7.412 3.174a2 2 0 1 0-2.828 2.828 2 2 0 0 0 2.828-2.828zm0-9.172a2 2 0 1 0-2.828-2.828 2 2 0 0 0 2.828 2.828z"
     id="path4"
     style="fill:#ffffff;fill-opacity:1" />
</svg>
